<svg id="Capa_1" enable-background="new 0 0 512 512" height="512" viewBox="0 0 512 512" width="512" xmlns="http://www.w3.org/2000/svg"><g><path d="m316.965 208.883c4.142 0 7.5-3.357 7.5-7.5v-13.32c0-12.958-10.542-23.5-23.5-23.5s-23.5 10.542-23.5 23.5v127.203c0 12.958 10.542 23.5 23.5 23.5s23.5-10.542 23.5-23.5v-78.818c0-4.143-3.358-7.5-7.5-7.5s-7.5 3.357-7.5 7.5v78.818c0 4.687-3.813 8.5-8.5 8.5s-8.5-3.813-8.5-8.5v-127.203c0-4.687 3.813-8.5 8.5-8.5s8.5 3.813 8.5 8.5v13.32c0 4.142 3.358 7.5 7.5 7.5z"/><path d="m215.465 314.813c0 12.827 9.828 23.336 22.374 23.925 11.926.808 24.761-9.648 24.626-23.473v-127.202c.174-11.919-10.784-24.325-24.625-23.474-12.546.59-22.375 11.099-22.375 23.926v37.468h-41.026v-37.468c0-12.826-9.828-23.336-22.375-23.925-11.927-.815-24.759 9.651-24.625 23.473v126.751c0 12.826 9.828 23.336 22.375 23.925 11.99.842 24.733-9.666 24.625-23.473v-42.283h41.026zm-43.526-56.831c-6.893 0-12.5 5.607-12.5 12.5v44.783c-.09 3.607-2.861 8.394-8.921 8.489-4.455-.209-8.079-4.22-8.079-8.941v-126.75c.061-3.479 3.102-8.695 8.921-8.489 4.455.209 8.079 4.22 8.079 8.941v39.968c0 6.893 5.607 12.5 12.5 12.5h46.026c6.893 0 12.5-5.607 12.5-12.5v-39.968c0-4.722 3.624-8.732 8.079-8.941 3.607-.083 8.541 2.452 8.921 8.489v127.203c-.091 3.606-2.86 8.398-8.921 8.489-4.455-.209-8.079-4.22-8.079-8.941v-44.331c0-6.893-5.607-12.5-12.5-12.5h-46.026z"/><path d="m396.715 110.992c-23.478 2.827-42.931 23.143-44.038 47.438l-5.646 107.88c-.967 6.213.479 12.449 4.096 17.614 3.713 5.303 9.268 8.842 15.643 9.965 1.417.25 2.827.371 4.219.371 11.448-.001 21.634-8.167 23.806-19.773l31.288-129.342c1.198-6.305 3.459-19.319-4.504-28.046-5.306-5.537-13.668-7.595-24.864-6.107zm14.733 30.855-31.282 129.32c-.836 4.185-5.033 8.748-10.792 7.95-4-.771-7.627-5.659-7.385-11.606l5.668-108.298c.885-16.909 13.653-30.896 30.372-33.262 2.986-.442 9.741-1.061 12.719 1.525 2.677 2.795 1.386 10.475.7 14.371z"/><path d="m342.189 340.754c3.45 4.927 8.605 8.214 14.518 9.256 10.456 2.234 24.151-5.645 26.063-18.249 2.154-12.217-6.033-23.909-18.25-26.063-10.853-2.11-24 5.616-26.064 18.249-1.043 5.911.283 11.881 3.733 16.807zm11.039-14.202c1.042-2.995 2.673-6.554 8.687-6.083 4.072.719 6.801 4.615 6.083 8.687-.602 3.017-3.658 6.697-8.686 6.083-3.016-.601-6.699-3.659-6.084-8.687z"/><path d="m339.79 432.133c-3.739 1.782-5.325 6.258-3.543 9.997 1.286 2.698 3.974 4.275 6.776 4.275 1.082 0 2.18-.235 3.221-.731 35.314-16.831 65.201-43.148 86.429-76.107 21.803-33.852 33.327-73.123 33.327-113.567 0-30.355-6.338-59.645-18.838-87.052-1.719-3.769-6.168-5.43-9.936-3.712-3.769 1.72-5.43 6.168-3.711 9.937 11.602 25.439 17.485 52.634 17.485 80.827 0 74.798-43.653 143.935-111.21 176.133z"/><path d="m383.15 88.855c-36.8-28.036-80.768-42.855-127.15-42.855-115.794 0-210 94.206-210 210s94.206 210 210 210c19.099 0 38.028-2.565 56.264-7.625 3.992-1.106 6.33-5.24 5.222-9.231-1.108-3.993-5.244-6.33-9.232-5.222-16.93 4.696-34.511 7.078-52.254 7.078-107.523 0-195-87.477-195-195s87.477-195 195-195c43.069 0 83.894 13.758 118.06 39.787 3.294 2.509 8 1.875 10.511-1.421 2.51-3.295 1.874-8.001-1.421-10.511z"/><path d="m437.02 74.98c-48.353-48.351-112.64-74.98-181.02-74.98-29.581 0-58.576 5.003-86.182 14.871-26.679 9.536-51.469 23.388-73.683 41.169-3.234 2.589-3.757 7.309-1.168 10.542 2.588 3.232 7.307 3.756 10.542 1.169 43.111-34.51 95.15-52.751 150.491-52.751 132.888 0 241 108.112 241 241s-108.112 241-241 241-241-108.112-241-241c0-61.685 23.285-120.367 65.564-165.238 2.841-3.015 2.7-7.762-.315-10.603-3.015-2.84-7.762-2.698-10.602.315-44.913 47.667-69.647 110.003-69.647 175.526 0 68.38 26.629 132.668 74.98 181.02 48.353 48.351 112.64 74.98 181.02 74.98s132.667-26.629 181.02-74.98c48.351-48.352 74.98-112.64 74.98-181.02s-26.629-132.668-74.98-181.02z"/><path d="m423.576 214.224c-4.06.822-6.684 4.779-5.862 8.839 2.181 10.768 3.286 21.849 3.286 32.937 0 82.758-61.209 152.568-142.829 163.512-1.315-32.594-24.866-60.291-57.902-67.748-4.041-.904-8.055 1.626-8.967 5.665-.912 4.041 1.624 8.056 5.665 8.968 26.905 6.072 45.927 28.807 46.258 55.267l.011.836c.049 3.536 1.604 6.904 4.264 9.238 2.287 2.007 5.225 3.102 8.235 3.102.479 0 .961-.028 1.441-.084 90.544-10.618 158.824-87.466 158.824-178.756 0-12.085-1.206-24.168-3.585-35.914-.822-4.06-4.775-6.687-8.839-5.862z"/><path d="m197.952 138.41c-14.785 0-28.474-7.392-36.617-19.773-1.918-2.916-5.002-4.899-8.463-5.44-3.477-.545-7.038.408-9.771 2.611-42.644 34.383-67.101 85.481-67.101 140.192 0 51.251 21.958 100.228 60.245 134.372 2.282 2.035 5.251 3.153 8.292 3.153.387 0 .775-.019 1.163-.055 3.456-.327 6.651-2.096 8.767-4.854 7.9-10.302 19.075-17.928 31.466-21.472 3.982-1.14 6.288-5.291 5.148-9.273-1.139-3.983-5.292-6.287-9.273-5.148-14.602 4.177-27.844 12.887-37.563 24.654-33.874-31.208-53.245-75.289-53.245-121.377 0-49.246 21.621-95.302 59.414-126.793 11.068 15.208 28.633 24.203 47.538 24.203 32.427 0 58.809-26.382 58.809-58.809 0-1.196-.037-2.4-.111-3.601 31.831.124 62.674 9.318 89.236 26.608 3.471 2.26 8.117 1.277 10.377-2.194 2.26-3.472 1.277-8.118-2.194-10.378-29.184-18.995-63.096-29.036-98.069-29.036-.771 0-1.542.005-2.305.017-3.492.049-6.819 1.574-9.128 4.185-2.329 2.633-3.445 6.157-3.063 9.672.171 1.564.257 3.155.257 4.729 0 24.155-19.653 43.807-43.809 43.807z"/></g></svg>